<svg width="199" height="168" viewBox="0 0 199 168" fill="none" xmlns="http://www.w3.org/2000/svg">
<g clip-path="url(#clip0)">
<path d="M152.819 155.852H62.7049C62.1463 155.851 61.6107 155.629 61.2157 155.234C60.8206 154.84 60.5984 154.305 60.5978 153.747V92.2815C60.5984 91.7235 60.8206 91.1885 61.2157 90.7939C61.6107 90.3993 62.1463 90.1774 62.7049 90.1767H152.819C153.377 90.1774 153.913 90.3993 154.308 90.7939C154.703 91.1885 154.925 91.7235 154.926 92.2815V153.747C154.925 154.305 154.703 154.84 154.308 155.234C153.913 155.629 153.377 155.851 152.819 155.852Z" fill="#CADDDA"/>
<path d="M118.193 155.482H97.3306V120.982C97.3315 120.164 97.6573 119.379 98.2366 118.801C98.8158 118.222 99.6011 117.896 100.42 117.896H115.104C115.923 117.896 116.708 118.222 117.287 118.801C117.866 119.379 118.192 120.164 118.193 120.982V155.482Z" fill="#C7999D"/>
<path d="M147.904 77.0748H135.99V57.1858C135.991 56.6278 136.213 56.0928 136.608 55.6982C137.003 55.3036 137.538 55.0817 138.097 55.081H145.797C146.356 55.0817 146.891 55.3036 147.286 55.6982C147.681 56.0928 147.904 56.6278 147.904 57.1858V77.0748Z" fill="#AE757A"/>
<path d="M80.7316 85.4499C93.4024 85.4499 103.674 75.1896 103.674 62.5329C103.674 49.8762 93.4024 39.6159 80.7316 39.6159C68.0609 39.6159 57.7892 49.8762 57.7892 62.5329C57.7892 75.1896 68.0609 85.4499 80.7316 85.4499Z" fill="#FAE59D"/>
<path d="M142.304 51.5943C140.238 51.5294 138.399 49.647 138.384 47.5821C138.369 45.5172 140.181 43.6088 142.246 43.5144C146.844 43.3044 150.609 38.3753 149.597 33.89C148.585 29.4046 143.068 26.5648 138.824 28.345C135.569 29.7106 132.279 25.4079 133.104 21.9785C133.929 18.5491 137.051 16.2462 139.94 14.2183C142.829 12.1905 145.92 9.80949 146.617 6.35191C147.315 2.89432 143.745 -1.24747 140.6 0.355262" fill="#E6E6E6"/>
<path d="M88.5188 127.917H70.896C70.193 127.916 69.5191 127.637 69.0221 127.14C68.525 126.644 68.2454 125.971 68.2446 125.269V110.756C68.2454 110.054 68.525 109.381 69.0221 108.884C69.5191 108.388 70.1931 108.109 70.896 108.108H88.5188C89.2217 108.109 89.8956 108.388 90.3927 108.884C90.8897 109.381 91.1693 110.054 91.1701 110.756V125.269C91.1693 125.971 90.8898 126.644 90.3927 127.14C89.8957 127.637 89.2218 127.916 88.5188 127.917Z" fill="#98B4E6"/>
<path d="M145.036 127.917H127.413C126.71 127.916 126.036 127.637 125.539 127.14C125.042 126.644 124.762 125.971 124.761 125.269V110.756C124.762 110.054 125.042 109.381 125.539 108.884C126.036 108.388 126.71 108.109 127.413 108.108H145.036C145.739 108.109 146.412 108.388 146.909 108.884C147.407 109.381 147.686 110.054 147.687 110.756V125.269C147.686 125.971 147.407 126.644 146.91 127.14C146.412 127.637 145.739 127.916 145.036 127.917Z" fill="#95B6F0"/>
<path d="M53.8698 91.4409V81.984C53.8698 81.2575 54.062 80.544 54.427 79.9156C54.792 79.2873 55.3168 78.7665 55.9482 78.406L108.551 48.3743C109.204 48.0016 109.946 47.8141 110.698 47.8324C111.45 47.8506 112.183 48.0738 112.817 48.4777L159.747 78.3776C160.331 78.75 160.813 79.2636 161.146 79.8709C161.479 80.4782 161.654 81.1596 161.654 81.8521V91.4409C161.654 92.5339 161.219 93.5821 160.446 94.355C159.672 95.1278 158.622 95.562 157.528 95.562H57.9955C56.9013 95.562 55.8519 95.1278 55.0781 94.355C54.3044 93.5821 53.8698 92.5339 53.8698 91.4409Z" fill="#52B788"/>
<path opacity="0.2" d="M157.528 91.3517H57.9954C56.9012 91.3516 55.8519 90.9175 55.0781 90.1446C54.3044 89.3717 53.8698 88.3235 53.8698 87.2305V90.9724C53.8698 92.0654 54.3044 93.1136 55.0781 93.8865C55.8519 94.6593 56.9012 95.0935 57.9954 95.0935H157.528C158.622 95.0935 159.672 94.6593 160.446 93.8865C161.219 93.1136 161.654 92.0654 161.654 90.9724V87.2305C161.654 88.3235 161.219 89.3717 160.446 90.1446C159.672 90.9175 158.622 91.3516 157.528 91.3517Z" fill="black"/>
<path d="M165.61 123.713C165.61 116.461 171.495 99.2522 178.755 99.2522C186.015 99.2522 191.901 116.461 191.901 123.713C191.901 127.196 190.516 130.536 188.051 132.998C185.585 135.461 182.242 136.844 178.755 136.844C175.269 136.844 171.925 135.461 169.46 132.998C166.995 130.536 165.61 127.196 165.61 123.713Z" fill="#52B788"/>
<path d="M178.755 155.573C178.693 155.573 178.634 155.548 178.59 155.504C178.546 155.46 178.521 155.401 178.521 155.339V108.189C178.521 108.127 178.546 108.067 178.59 108.023C178.634 107.979 178.693 107.955 178.755 107.955C178.817 107.955 178.877 107.979 178.921 108.023C178.965 108.067 178.989 108.127 178.989 108.189V155.339C178.989 155.401 178.965 155.46 178.921 155.504C178.877 155.548 178.817 155.573 178.755 155.573Z" fill="#3F3D56"/>
<path d="M178.755 129.098C178.709 129.098 178.664 129.084 178.626 129.059C178.588 129.034 178.558 128.998 178.54 128.956C178.522 128.914 178.517 128.867 178.525 128.822C178.533 128.777 178.554 128.736 178.586 128.702L185.268 121.698C185.289 121.675 185.315 121.658 185.343 121.645C185.371 121.633 185.401 121.626 185.432 121.625C185.463 121.625 185.493 121.63 185.522 121.641C185.551 121.652 185.577 121.669 185.599 121.69C185.621 121.711 185.639 121.736 185.652 121.764C185.664 121.792 185.671 121.823 185.672 121.853C185.672 121.884 185.667 121.915 185.656 121.943C185.645 121.972 185.628 121.998 185.607 122.02L178.925 129.025C178.903 129.048 178.876 129.066 178.847 129.079C178.818 129.091 178.787 129.098 178.755 129.098Z" fill="#3F3D56"/>
<path d="M178.755 117.288C178.697 117.288 178.64 117.266 178.597 117.227L172.822 111.952C172.8 111.932 172.781 111.907 172.768 111.879C172.755 111.851 172.747 111.821 172.746 111.79C172.745 111.759 172.749 111.729 172.76 111.7C172.77 111.671 172.786 111.644 172.807 111.622C172.828 111.599 172.853 111.58 172.881 111.567C172.909 111.554 172.939 111.547 172.97 111.546C173 111.544 173.031 111.549 173.06 111.56C173.089 111.57 173.116 111.586 173.138 111.607L178.913 116.881C178.948 116.913 178.973 116.955 178.983 117.001C178.994 117.047 178.991 117.095 178.974 117.139C178.956 117.183 178.926 117.22 178.887 117.247C178.849 117.274 178.802 117.288 178.755 117.288V117.288Z" fill="#3F3D56"/>
<path d="M5.15735 109.284C5.15735 98.6159 13.8152 73.301 24.4951 73.301C35.1751 73.301 43.8329 98.6159 43.8329 109.284C43.8329 114.407 41.7955 119.32 38.169 122.943C34.5425 126.565 29.6238 128.6 24.4951 128.6C19.3664 128.6 14.4478 126.565 10.8213 122.943C7.19472 119.32 5.15735 114.407 5.15735 109.284Z" fill="#52B788"/>
<path d="M24.4952 156.04C24.4331 156.04 24.3735 156.016 24.3296 155.972C24.2857 155.928 24.2611 155.868 24.261 155.806V86.4466C24.261 86.3846 24.2857 86.3251 24.3296 86.2813C24.3735 86.2374 24.4331 86.2128 24.4952 86.2128C24.5573 86.2128 24.6168 86.2374 24.6607 86.2813C24.7046 86.3251 24.7293 86.3846 24.7293 86.4466V155.806C24.7293 155.868 24.7046 155.928 24.6607 155.972C24.6168 156.016 24.5573 156.04 24.4952 156.04Z" fill="#3F3D56"/>
<path d="M24.4951 117.094C24.4493 117.094 24.4045 117.081 24.3662 117.056C24.3279 117.031 24.2979 116.995 24.2799 116.953C24.2619 116.911 24.2566 116.864 24.2647 116.819C24.2728 116.774 24.294 116.732 24.3257 116.699L34.1558 106.395C34.1987 106.35 34.2576 106.324 34.3197 106.323C34.3818 106.321 34.4419 106.344 34.4869 106.387C34.5318 106.43 34.5579 106.489 34.5594 106.551C34.5609 106.613 34.5377 106.673 34.4949 106.718L24.6646 117.022C24.6428 117.045 24.6165 117.063 24.5873 117.076C24.5582 117.088 24.5268 117.095 24.4951 117.094Z" fill="#3F3D56"/>
<path d="M24.4951 99.7219C24.4366 99.7219 24.3803 99.7001 24.3372 99.6607L15.8419 91.9021C15.7961 91.8602 15.7688 91.8019 15.766 91.7399C15.7632 91.6779 15.7852 91.6174 15.8271 91.5716C15.869 91.5259 15.9274 91.4986 15.9894 91.4958C16.0514 91.493 16.112 91.515 16.1579 91.5568L24.6531 99.3155C24.688 99.3473 24.7124 99.3889 24.7231 99.4348C24.7339 99.4807 24.7305 99.5288 24.7134 99.5727C24.6963 99.6167 24.6663 99.6544 24.6274 99.681C24.5884 99.7077 24.5423 99.7219 24.4951 99.7219H24.4951Z" fill="#3F3D56"/>
<path d="M169.572 155.549C169.594 155.567 169.618 155.582 169.64 155.599H188.677C189.05 154.089 189.182 152.578 188.625 151.265C187.831 149.395 185.481 148.228 183.613 149.031C183.171 149.226 182.785 149.531 182.493 149.916C181.763 148.611 180.454 147.627 178.942 147.628C177.049 147.629 175.475 149.176 174.961 150.963C174.133 149.568 172.499 148.593 170.902 149.013C168.231 149.714 167.387 153.862 169.572 155.549Z" fill="#52B788"/>
<path d="M6.02659 155.967C6.07128 156.002 6.1185 156.033 6.16377 156.066H44.5939C45.347 153.019 45.6129 149.968 44.4881 147.319C42.8854 143.543 38.1425 141.187 34.3718 142.808C33.4784 143.202 32.7002 143.818 32.1103 144.595C30.6368 141.96 27.9935 139.974 24.9424 139.976C21.1199 139.979 17.9417 143.101 16.9045 146.708C15.2344 143.892 11.9354 141.924 8.71093 142.771C3.31789 144.187 1.61442 152.561 6.02659 155.967Z" fill="#52B788"/>
<path d="M67.1508 145.867C67.1983 145.682 67.2047 145.489 67.1694 145.302C67.1342 145.114 67.0582 144.936 66.9468 144.781C66.8354 144.626 66.6913 144.497 66.5247 144.404C66.3581 144.311 66.173 144.255 65.9825 144.241L58.5473 134.955L56.7076 136.668L64.562 145.538C64.5593 145.859 64.6746 146.17 64.8862 146.412C65.0978 146.654 65.3909 146.81 65.71 146.851C66.0291 146.891 66.3521 146.814 66.6176 146.632C66.8832 146.451 67.0729 146.179 67.1508 145.867V145.867Z" fill="#FFB8B8"/>
<path d="M59.9737 136.43L57.624 138.228C57.5571 138.279 57.48 138.315 57.3979 138.334C57.3158 138.352 57.2306 138.353 57.1482 138.336C57.0657 138.319 56.988 138.284 56.9201 138.234C56.8523 138.184 56.7961 138.12 56.7552 138.047L55.3239 135.469C55.0639 135.126 54.9508 134.694 55.0093 134.268C55.0679 133.841 55.2932 133.456 55.636 133.195C55.9788 132.934 56.4111 132.82 56.838 132.877C57.265 132.935 57.6519 133.159 57.9138 133.5L60.0254 135.545C60.0859 135.604 60.133 135.675 60.1635 135.753C60.194 135.831 60.2073 135.916 60.2024 135.999C60.1975 136.083 60.1745 136.165 60.1351 136.24C60.0956 136.314 60.0406 136.379 59.9737 136.43H59.9737Z" fill="#3F3D56"/>
<path d="M56.0276 130.825C57.6778 130.825 59.0156 129.488 59.0156 127.84C59.0156 126.191 57.6778 124.855 56.0276 124.855C54.3773 124.855 53.0396 126.191 53.0396 127.84C53.0396 129.488 54.3773 130.825 56.0276 130.825Z" fill="#FFB8B8"/>
<path d="M62.4058 166.556H63.8974L63.7553 163.767H61.5541L62.4058 166.556Z" fill="#FFB8B8"/>
<path d="M62.0254 166.069L64.9627 166.069H64.9628C65.2086 166.069 65.452 166.118 65.6791 166.212C65.9062 166.306 66.1126 166.443 66.2864 166.617C66.4602 166.791 66.5981 166.997 66.6922 167.224C66.7862 167.45 66.8346 167.694 66.8346 167.939V168L62.0255 168L62.0254 166.069Z" fill="#2F2E41"/>
<path d="M46.5037 164.447L47.7726 165.23L49.1189 162.783L47.5835 161.823L46.5037 164.447Z" fill="#FFB8B8"/>
<path d="M46.4359 163.833L48.9349 165.375L48.935 165.375C49.1441 165.504 49.3257 165.673 49.4695 165.872C49.6133 166.071 49.7164 166.297 49.7729 166.536C49.8294 166.775 49.8383 167.022 49.799 167.265C49.7596 167.507 49.6729 167.739 49.5437 167.948L49.5117 168L45.4202 165.475L46.4359 163.833Z" fill="#2F2E41"/>
<path d="M62.298 165.738C62.1871 165.738 62.0788 165.704 61.9876 165.641C61.8964 165.579 61.8265 165.489 61.7873 165.386L56.3923 152.501C56.3806 152.47 56.3606 152.442 56.3342 152.421C56.3079 152.4 56.2763 152.387 56.243 152.383C56.2097 152.379 56.1759 152.384 56.1453 152.398C56.1148 152.412 56.0886 152.434 56.0698 152.462L48.6581 164.125C48.5856 164.233 48.4764 164.312 48.3506 164.347C48.2247 164.382 48.0904 164.371 47.9721 164.315L46.958 163.843C46.8281 163.781 46.7273 163.672 46.6772 163.537C46.6271 163.403 46.6317 163.254 46.69 163.123L52.7622 149.603C52.6296 149.281 51.3363 145.972 53.3234 144.338L53.3373 144.329L58.7254 141.928L58.8612 146.057L64.2317 164.67C64.2519 164.74 64.2579 164.813 64.2494 164.886C64.2408 164.958 64.2178 165.028 64.1818 165.091C64.1457 165.155 64.0974 165.21 64.0395 165.255C63.9817 165.299 63.9156 165.332 63.845 165.35L62.4383 165.72C62.3925 165.732 62.3453 165.738 62.298 165.738Z" fill="#2F2E41"/>
<path d="M58.8069 135.889C58.6017 135.066 58.3109 134.237 57.9211 133.855C57.7778 133.715 57.6432 133.567 57.5179 133.411C57.2557 133.081 56.9259 132.811 56.5506 132.619C56.6879 132.543 56.7684 132.452 56.7684 132.354C56.7684 132.085 56.1693 131.868 55.4302 131.868C54.6911 131.868 54.092 132.085 54.092 132.354C54.0938 132.385 54.1017 132.416 54.1154 132.444C54.129 132.472 54.1481 132.497 54.1715 132.518C53.6889 132.714 53.2695 133.039 52.959 133.457C52.6486 133.875 52.459 134.371 52.4109 134.889C52.2381 136.738 52.1876 139.102 52.7933 140.597C53.3014 141.833 53.3418 143.212 52.907 144.476C52.8775 144.564 52.8739 144.658 52.8966 144.748C52.9193 144.838 52.9674 144.92 53.0351 144.983C53.1028 145.047 53.1873 145.09 53.2786 145.107C53.37 145.124 53.4643 145.114 53.5504 145.079L58.8968 142.927C58.9868 142.891 59.0639 142.829 59.1182 142.749C59.1725 142.668 59.2016 142.573 59.2016 142.477V139.208C59.2058 138.09 59.0733 136.975 58.8069 135.889Z" fill="#3F3D56"/>
<path d="M48.5773 149.351C48.7635 149.308 48.9378 149.225 49.0882 149.107C49.2385 148.989 49.3612 148.84 49.4475 148.67C49.5339 148.499 49.5818 148.312 49.5879 148.121C49.5941 147.931 49.5583 147.741 49.483 147.566L53.6662 136.546L51.5448 135.999L47.6756 146.905C47.389 147.051 47.1658 147.297 47.0484 147.596C46.9311 147.895 46.9276 148.227 47.0388 148.528C47.1499 148.83 47.3679 149.08 47.6515 149.232C47.9351 149.383 48.2645 149.426 48.5773 149.351L48.5773 149.351Z" fill="#FFB8B8"/>
<path d="M53.6488 138.637L50.9683 137.384C50.892 137.348 50.8244 137.297 50.7699 137.232C50.7154 137.168 50.6754 137.093 50.6526 137.012C50.6298 136.931 50.6248 136.846 50.6378 136.763C50.6508 136.68 50.6816 136.601 50.7281 136.531L52.3572 134.073C52.5424 133.685 52.874 133.386 53.2795 133.241C53.685 133.097 54.1312 133.119 54.5206 133.302C54.9099 133.486 55.2106 133.816 55.3569 134.22C55.5032 134.625 55.4831 135.07 55.301 135.46L54.4587 138.275C54.4345 138.355 54.3933 138.43 54.3377 138.493C54.2822 138.556 54.2137 138.607 54.1368 138.641C54.0599 138.676 53.9766 138.693 53.8924 138.692C53.8082 138.692 53.7251 138.673 53.6488 138.637Z" fill="#3F3D56"/>
<path d="M58.7721 127.105C58.9069 127.121 59.0434 127.097 59.1641 127.034C59.3845 126.89 59.3628 126.563 59.2882 126.31C59.1024 125.706 58.767 125.157 58.313 124.716C57.859 124.275 57.301 123.955 56.6905 123.785C56.2651 123.673 55.7269 123.677 55.4836 124.043C54.872 123.636 54.1347 123.462 53.4054 123.551C52.676 123.641 52.003 123.988 51.5082 124.531C51.0247 125.098 50.7023 125.784 50.5749 126.517C50.3195 127.767 49.2261 130.344 49.8318 131.467C50.2349 132.214 52.0898 131.632 52.8744 131.957C53.2652 132.127 53.6919 132.198 54.1167 132.164C54.5415 132.13 54.9513 131.991 55.3097 131.761C55.6605 131.519 55.9242 131.171 56.0618 130.768C56.1995 130.365 56.2037 129.929 56.074 129.523C55.9366 129.225 55.7783 128.937 55.6 128.661C55.4211 128.382 55.3481 128.049 55.3943 127.72C55.5041 127.221 57.8625 127.086 58.7721 127.105Z" fill="#2F2E41"/>
<path d="M88.411 112.545C88.7425 112.315 89.1962 112.552 89.1962 112.956V124.831C89.1962 125.107 88.9723 125.331 88.6962 125.331H71.5966C71.1067 125.331 70.909 124.7 71.3114 124.42L88.411 112.545Z" fill="#B8CEF5"/>
<path d="M144.411 112.545C144.743 112.315 145.196 112.552 145.196 112.956V124.831C145.196 125.107 144.972 125.331 144.696 125.331H127.597C127.107 125.331 126.909 124.7 127.311 124.42L144.411 112.545Z" fill="#B8CEF5"/>
</g>
<defs>
<clipPath id="clip0">
<rect width="199" height="168" fill="white"/>
</clipPath>
</defs>
</svg>
